<svg xmlns="http://www.w3.org/2000/svg" xmlns:xlink="http://www.w3.org/1999/xlink" contentStyleType="text/css" height="450px" preserveAspectRatio="none" style="width:391px;height:450px;background:#FFFFFF;" version="1.1" viewBox="0 0 391 450" width="391px" zoomAndPan="magnify"><defs/><g><text fill="#000000" font-family="sans-serif" font-size="14" font-weight="bold" lengthAdjust="spacing" textLength="205.9941" x="93.7251" y="27.9951">Search Sequence diagram</text><rect fill="#FFBBBB" height="231.3359" style="stroke:#181818;stroke-width:1.0;" width="10" x="126.0947" y="128.5938"/><rect fill="#E9967A" height="28" style="stroke:#181818;stroke-width:1.0;" width="10" x="131.0947" y="186.8594"/><rect fill="#FFBBBB" height="14" style="stroke:#181818;stroke-width:1.0;" width="10" x="259.8926" y="259.9922"/><rect fill="#FFBBBB" height="14" style="stroke:#181818;stroke-width:1.0;" width="10" x="328.2646" y="273.9922"/><rect fill="none" height="116.0703" style="stroke:#000000;stroke-width:1.5;" width="294.5522" x="89.8921" y="236.8594"/><line style="stroke:#181818;stroke-width:0.5;stroke-dasharray:5.0,5.0;" x1="23" x2="23" y1="118.5938" y2="369.9297"/><line style="stroke:#181818;stroke-width:0.5;stroke-dasharray:5.0,5.0;" x1="130.8921" x2="130.8921" y1="118.5938" y2="369.9297"/><line style="stroke:#181818;stroke-width:0.5;stroke-dasharray:5.0,5.0;" x1="264.7002" x2="264.7002" y1="118.5938" y2="369.9297"/><line style="stroke:#181818;stroke-width:0.5;stroke-dasharray:5.0,5.0;" x1="333.085" x2="333.085" y1="118.5938" y2="369.9297"/><text fill="#000000" font-family="sans-serif" font-size="14" lengthAdjust="spacing" textLength="31.9102" x="5" y="115.292">User</text><ellipse cx="23.9551" cy="50.7969" fill="#E2E2F0" rx="8" ry="8" style="stroke:#181818;stroke-width:0.5;"/><path d="M23.9551,58.7969 L23.9551,85.7969 M10.9551,66.7969 L36.9551,66.7969 M23.9551,85.7969 L10.9551,100.7969 M23.9551,85.7969 L36.9551,100.7969 " fill="none" style="stroke:#181818;stroke-width:0.5;"/><text fill="#000000" font-family="sans-serif" font-size="14" lengthAdjust="spacing" textLength="31.9102" x="5" y="381.9248">User</text><ellipse cx="23.9551" cy="393.7266" fill="#E2E2F0" rx="8" ry="8" style="stroke:#181818;stroke-width:0.5;"/><path d="M23.9551,401.7266 L23.9551,428.7266 M10.9551,409.7266 L36.9551,409.7266 M23.9551,428.7266 L10.9551,443.7266 M23.9551,428.7266 L36.9551,443.7266 " fill="none" style="stroke:#181818;stroke-width:0.5;"/><rect fill="#E2E2F0" height="30.2969" rx="2.5" ry="2.5" style="stroke:#181818;stroke-width:0.5;" width="62.4053" x="99.8921" y="87.2969"/><text fill="#000000" font-family="sans-serif" font-size="14" lengthAdjust="spacing" textLength="48.4053" x="106.8921" y="107.292">Search</text><rect fill="#E2E2F0" height="30.2969" rx="2.5" ry="2.5" style="stroke:#181818;stroke-width:0.5;" width="62.4053" x="99.8921" y="368.9297"/><text fill="#000000" font-family="sans-serif" font-size="14" lengthAdjust="spacing" textLength="48.4053" x="106.8921" y="388.9248">Search</text><rect fill="#E2E2F0" height="30.2969" rx="2.5" ry="2.5" style="stroke:#181818;stroke-width:0.5;" width="34.3848" x="247.7002" y="87.2969"/><text fill="#000000" font-family="sans-serif" font-size="14" lengthAdjust="spacing" textLength="20.3848" x="254.7002" y="107.292">DB</text><rect fill="#E2E2F0" height="30.2969" rx="2.5" ry="2.5" style="stroke:#181818;stroke-width:0.5;" width="34.3848" x="247.7002" y="368.9297"/><text fill="#000000" font-family="sans-serif" font-size="14" lengthAdjust="spacing" textLength="20.3848" x="254.7002" y="388.9248">DB</text><rect fill="#E2E2F0" height="30.2969" rx="2.5" ry="2.5" style="stroke:#181818;stroke-width:0.5;" width="82.3594" x="292.085" y="87.2969"/><text fill="#000000" font-family="sans-serif" font-size="14" lengthAdjust="spacing" textLength="68.3594" x="299.085" y="107.292">ResultList</text><rect fill="#E2E2F0" height="30.2969" rx="2.5" ry="2.5" style="stroke:#181818;stroke-width:0.5;" width="82.3594" x="292.085" y="368.9297"/><text fill="#000000" font-family="sans-serif" font-size="14" lengthAdjust="spacing" textLength="68.3594" x="299.085" y="388.9248">ResultList</text><rect fill="#FFBBBB" height="231.3359" style="stroke:#181818;stroke-width:1.0;" width="10" x="126.0947" y="128.5938"/><rect fill="#E9967A" height="28" style="stroke:#181818;stroke-width:1.0;" width="10" x="131.0947" y="186.8594"/><rect fill="#FFBBBB" height="14" style="stroke:#181818;stroke-width:1.0;" width="10" x="259.8926" y="259.9922"/><rect fill="#FFBBBB" height="14" style="stroke:#181818;stroke-width:1.0;" width="10" x="328.2646" y="273.9922"/><polygon fill="#181818" points="114.0947,145.7266,124.0947,149.7266,114.0947,153.7266,118.0947,149.7266" style="stroke:#181818;stroke-width:1.0;"/><line style="stroke:#181818;stroke-width:1.0;" x1="23.9551" x2="120.0947" y1="149.7266" y2="149.7266"/><text fill="#000000" font-family="sans-serif" font-size="13" lengthAdjust="spacing" textLength="78.1396" x="30.9551" y="144.6606">search(img)</text><line style="stroke:#181818;stroke-width:1.0;" x1="141.0947" x2="183.0947" y1="178.8594" y2="178.8594"/><line style="stroke:#181818;stroke-width:1.0;" x1="183.0947" x2="183.0947" y1="178.8594" y2="191.8594"/><line style="stroke:#181818;stroke-width:1.0;" x1="142.0947" x2="183.0947" y1="191.8594" y2="191.8594"/><polygon fill="#181818" points="152.0947,187.8594,142.0947,191.8594,152.0947,195.8594,148.0947,191.8594" style="stroke:#181818;stroke-width:1.0;"/><text fill="#000000" font-family="sans-serif" font-size="13" lengthAdjust="spacing" textLength="99.7979" x="148.0947" y="173.7935">validate search</text><path d="M89.8921,236.8594 L154.335,236.8594 L154.335,243.9922 L144.335,253.9922 L89.8921,253.9922 L89.8921,236.8594 " fill="#EEEEEE" style="stroke:#000000;stroke-width:1.5;"/><rect fill="none" height="116.0703" style="stroke:#000000;stroke-width:1.5;" width="294.5522" x="89.8921" y="236.8594"/><text fill="#000000" font-family="sans-serif" font-size="13" font-weight="bold" lengthAdjust="spacing" textLength="19.4429" x="104.8921" y="249.9263">alt</text><text fill="#000000" font-family="sans-serif" font-size="11" font-weight="bold" lengthAdjust="spacing" textLength="40.063" x="169.335" y="249.0698">[valid]</text><polygon fill="#181818" points="247.8926,255.9922,257.8926,259.9922,247.8926,263.9922,251.8926,259.9922" style="stroke:#181818;stroke-width:1.0;"/><line style="stroke:#181818;stroke-width:1.0;" x1="136.0947" x2="253.8926" y1="259.9922" y2="259.9922"/><polygon fill="#181818" points="316.2646,269.9922,326.2646,273.9922,316.2646,277.9922,320.2646,273.9922" style="stroke:#181818;stroke-width:1.0;"/><line style="stroke:#181818;stroke-width:1.0;" x1="264.8926" x2="322.2646" y1="273.9922" y2="273.9922"/><polygon fill="#181818" points="147.0947,283.9922,137.0947,287.9922,147.0947,291.9922,143.0947,287.9922" style="stroke:#181818;stroke-width:1.0;"/><line style="stroke:#181818;stroke-width:1.0;" x1="141.0947" x2="332.2646" y1="287.9922" y2="287.9922"/><line style="stroke:#000000;stroke-width:1.0;stroke-dasharray:2.0,2.0;" x1="89.8921" x2="384.4443" y1="296.9922" y2="296.9922"/><text fill="#000000" font-family="sans-serif" font-size="11" font-weight="bold" lengthAdjust="spacing" textLength="35.2935" x="94.8921" y="307.2026">[else]</text><line style="stroke:#181818;stroke-width:1.0;" x1="136.0947" x2="178.0947" y1="331.9297" y2="331.9297"/><line style="stroke:#181818;stroke-width:1.0;" x1="178.0947" x2="178.0947" y1="331.9297" y2="344.9297"/><line style="stroke:#181818;stroke-width:1.0;" x1="137.0947" x2="178.0947" y1="344.9297" y2="344.9297"/><polygon fill="#181818" points="147.0947,340.9297,137.0947,344.9297,147.0947,348.9297,143.0947,344.9297" style="stroke:#181818;stroke-width:1.0;"/><text fill="#000000" font-family="sans-serif" font-size="13" lengthAdjust="spacing" textLength="84.2524" x="143.0947" y="326.8638">Display Error</text><!--SRC=[RL3BJiGm3BpxAonnMGxy00UahKfFd5Zn0TxKAXRf0yTRYR_Vz46QKdA8vPd9P6mJyumN9dMViNpVk7ECjL2Zr0ASdVMA7u4L0SYPZ6H9_b1LHJm0C__qikBF6EPwahPvX5MRiIDvgIURHOP7tvBqwqA-xJke-GyROtXRF01nSo-Bs2PjMQHqE3LHyCxXvkrDWaKeizr94xgfCpO3qpnxit-UiG-CyxNB-xkDKiBWwGTVLNi5xkhZoDkY8UwDhXIcr32GcZWPgBFitpi0]--></g></svg>