<svg xmlns="http://www.w3.org/2000/svg" xmlns:xlink="http://www.w3.org/1999/xlink" contentStyleType="text/css" height="277px" preserveAspectRatio="none" style="width:257px;height:277px;background:#FFFFFF;" version="1.1" viewBox="0 0 257 277" width="257px" zoomAndPan="magnify"><defs/><g><text fill="#000000" font-family="sans-serif" font-size="14" font-weight="bold" lengthAdjust="spacing" textLength="97.3574" x="81.7627" y="27.9951">Data Upload</text><rect fill="#FFBBBB" height="59.2656" style="stroke:#181818;stroke-width:1.0;" width="10" x="68.5854" y="128.5938"/><rect fill="#E9967A" height="29.1328" style="stroke:#181818;stroke-width:1.0;" width="10" x="73.5854" y="149.7266"/><rect fill="#FFBBBB" height="29.1328" style="stroke:#181818;stroke-width:1.0;" width="10" x="204.5586" y="149.7266"/><line style="stroke:#181818;stroke-width:0.5;stroke-dasharray:5.0,5.0;" x1="23" x2="23" y1="118.5938" y2="196.8594"/><line style="stroke:#181818;stroke-width:0.5;stroke-dasharray:5.0,5.0;" x1="72.9102" x2="72.9102" y1="118.5938" y2="196.8594"/><line style="stroke:#181818;stroke-width:0.5;stroke-dasharray:5.0,5.0;" x1="209.2344" x2="209.2344" y1="118.5938" y2="196.8594"/><text fill="#000000" font-family="sans-serif" font-size="14" lengthAdjust="spacing" textLength="31.9102" x="5" y="115.292">User</text><ellipse cx="23.9551" cy="50.7969" fill="#E2E2F0" rx="8" ry="8" style="stroke:#181818;stroke-width:0.5;"/><path d="M23.9551,58.7969 L23.9551,85.7969 M10.9551,66.7969 L36.9551,66.7969 M23.9551,85.7969 L10.9551,100.7969 M23.9551,85.7969 L36.9551,100.7969 " fill="none" style="stroke:#181818;stroke-width:0.5;"/><text fill="#000000" font-family="sans-serif" font-size="14" lengthAdjust="spacing" textLength="31.9102" x="5" y="208.8545">User</text><ellipse cx="23.9551" cy="220.6563" fill="#E2E2F0" rx="8" ry="8" style="stroke:#181818;stroke-width:0.5;"/><path d="M23.9551,228.6563 L23.9551,255.6563 M10.9551,236.6563 L36.9551,236.6563 M23.9551,255.6563 L10.9551,270.6563 M23.9551,255.6563 L36.9551,270.6563 " fill="none" style="stroke:#181818;stroke-width:0.5;"/><rect fill="#E2E2F0" height="30.2969" rx="2.5" ry="2.5" style="stroke:#181818;stroke-width:0.5;" width="41.3506" x="52.9102" y="87.2969"/><text fill="#000000" font-family="sans-serif" font-size="14" lengthAdjust="spacing" textLength="27.3506" x="59.9102" y="107.292">App</text><rect fill="#E2E2F0" height="30.2969" rx="2.5" ry="2.5" style="stroke:#181818;stroke-width:0.5;" width="41.3506" x="52.9102" y="195.8594"/><text fill="#000000" font-family="sans-serif" font-size="14" lengthAdjust="spacing" textLength="27.3506" x="59.9102" y="215.8545">App</text><text fill="#000000" font-family="sans-serif" font-size="14" lengthAdjust="spacing" textLength="88.6484" x="162.2344" y="115.292">DBApiServer</text><path d="M191.5586,66.2969 C191.5586,56.2969 209.5586,56.2969 209.5586,56.2969 C209.5586,56.2969 227.5586,56.2969 227.5586,66.2969 L227.5586,92.2969 C227.5586,102.2969 209.5586,102.2969 209.5586,102.2969 C209.5586,102.2969 191.5586,102.2969 191.5586,92.2969 L191.5586,66.2969 " fill="#E2E2F0" style="stroke:#181818;stroke-width:1.5;"/><path d="M191.5586,66.2969 C191.5586,76.2969 209.5586,76.2969 209.5586,76.2969 C209.5586,76.2969 227.5586,76.2969 227.5586,66.2969 " fill="none" style="stroke:#181818;stroke-width:1.5;"/><text fill="#000000" font-family="sans-serif" font-size="14" lengthAdjust="spacing" textLength="88.6484" x="162.2344" y="208.8545">DBApiServer</text><path d="M191.5586,222.1563 C191.5586,212.1563 209.5586,212.1563 209.5586,212.1563 C209.5586,212.1563 227.5586,212.1563 227.5586,222.1563 L227.5586,248.1563 C227.5586,258.1563 209.5586,258.1563 209.5586,258.1563 C209.5586,258.1563 191.5586,258.1563 191.5586,248.1563 L191.5586,222.1563 " fill="#E2E2F0" style="stroke:#181818;stroke-width:1.5;"/><path d="M191.5586,222.1563 C191.5586,232.1563 209.5586,232.1563 209.5586,232.1563 C209.5586,232.1563 227.5586,232.1563 227.5586,222.1563 " fill="none" style="stroke:#181818;stroke-width:1.5;"/><rect fill="#FFBBBB" height="59.2656" style="stroke:#181818;stroke-width:1.0;" width="10" x="68.5854" y="128.5938"/><rect fill="#E9967A" height="29.1328" style="stroke:#181818;stroke-width:1.0;" width="10" x="73.5854" y="149.7266"/><rect fill="#FFBBBB" height="29.1328" style="stroke:#181818;stroke-width:1.0;" width="10" x="204.5586" y="149.7266"/><polygon fill="#181818" points="192.5586,145.7266,202.5586,149.7266,192.5586,153.7266,196.5586,149.7266" style="stroke:#181818;stroke-width:1.0;"/><line style="stroke:#181818;stroke-width:1.0;" x1="83.5854" x2="198.5586" y1="149.7266" y2="149.7266"/><text fill="#000000" font-family="sans-serif" font-size="13" lengthAdjust="spacing" textLength="86.7344" x="90.5854" y="144.6606">Upload(Data)</text><polygon fill="#181818" points="89.5854,174.8594,79.5854,178.8594,89.5854,182.8594,85.5854,178.8594" style="stroke:#181818;stroke-width:1.0;"/><line style="stroke:#181818;stroke-width:1.0;" x1="83.5854" x2="208.5586" y1="178.8594" y2="178.8594"/><text fill="#000000" font-family="sans-serif" font-size="13" lengthAdjust="spacing" textLength="96.9731" x="95.5854" y="173.7935">Data Uploaded</text><!--SRC=[ROun2iCm34LtdKBGfHrwWGm5Xv0BX1n0jJMOkh5GHCvV1KfZGhNfwx__PTaAuq16E4kfb012jAeuhwm8GcevPg75C8X0SkEJLYVw87bYtLW1A5hUo7Ytu6KSUn_FyUN-Q9tTj-EwzzrEs43wcgYywt8S6lQNsseUxspN_iy98V6_X5PswWC0]--></g></svg>