<svg xmlns="http://www.w3.org/2000/svg" xmlns:xlink="http://www.w3.org/1999/xlink" contentStyleType="text/css" height="252px" preserveAspectRatio="none" style="width:1053px;height:252px;background:#FFFFFF;" version="1.1" viewBox="0 0 1053 252" width="1053px" zoomAndPan="magnify"><defs/><g><!--cluster Chat-classes--><g id="cluster_Chat-classes"><path d="M8.5,6 L108.7305,6 A3.75,3.75 0 0 1 111.2305,8.5 L118.2305,28.2969 L1043.5,28.2969 A2.5,2.5 0 0 1 1046,30.7969 L1046,243.09 A2.5,2.5 0 0 1 1043.5,245.59 L8.5,245.59 A2.5,2.5 0 0 1 6,243.09 L6,8.5 A2.5,2.5 0 0 1 8.5,6 " fill="none" style="stroke:#000000;stroke-width:1.5;"/><line style="stroke:#000000;stroke-width:1.5;" x1="6" x2="118.2305" y1="28.2969" y2="28.2969"/><text fill="#000000" font-family="sans-serif" font-size="14" font-weight="bold" lengthAdjust="spacing" textLength="99.2305" x="10" y="20.9951">Chat-classes</text></g><!--class CreateChatroom--><g id="elem_CreateChatroom"><rect codeLine="4" fill="#F1F1F1" height="64.2969" id="CreateChatroom" rx="2.5" ry="2.5" style="stroke:#181818;stroke-width:0.5;" width="283.4482" x="22.28" y="41"/><ellipse cx="101.7204" cy="57" fill="#ADD1B2" rx="11" ry="11" style="stroke:#181818;stroke-width:1.0;"/><path d="M104.6892,62.6406 Q104.1111,62.9375 103.4704,63.0781 Q102.8298,63.2344 102.1267,63.2344 Q99.6267,63.2344 98.2986,61.5938 Q96.9861,59.9375 96.9861,56.8125 Q96.9861,53.6875 98.2986,52.0313 Q99.6267,50.375 102.1267,50.375 Q102.8298,50.375 103.4704,50.5313 Q104.1267,50.6875 104.6892,50.9844 L104.6892,53.7031 Q104.0642,53.125 103.4704,52.8594 Q102.8767,52.5781 102.2517,52.5781 Q100.9079,52.5781 100.2204,53.6563 Q99.5329,54.7188 99.5329,56.8125 Q99.5329,58.9063 100.2204,59.9844 Q100.9079,61.0469 102.2517,61.0469 Q102.8767,61.0469 103.4704,60.7813 Q104.0642,60.5 104.6892,59.9219 L104.6892,62.6406 Z " fill="#000000"/><text fill="#000000" font-family="sans-serif" font-size="14" lengthAdjust="spacing" textLength="116.0674" x="122.2204" y="61.8467">CreateChatroom</text><line style="stroke:#181818;stroke-width:0.5;" x1="23.28" x2="304.7282" y1="73" y2="73"/><line style="stroke:#181818;stroke-width:0.5;" x1="23.28" x2="304.7282" y1="81" y2="81"/><ellipse cx="33.28" cy="94.6484" fill="#84BE84" rx="3" ry="3" style="stroke:#038048;stroke-width:1.0;"/><text fill="#000000" font-family="sans-serif" font-size="14" lengthAdjust="spacing" textLength="257.4482" x="42.28" y="97.9951">createChatroom(name: String): Chat</text></g><!--class LeaveChatroom--><g id="elem_LeaveChatroom"><rect codeLine="8" fill="#F1F1F1" height="64.2969" id="LeaveChatroom" rx="2.5" ry="2.5" style="stroke:#181818;stroke-width:0.5;" width="333.7061" x="341.15" y="41"/><ellipse cx="448.1871" cy="57" fill="#ADD1B2" rx="11" ry="11" style="stroke:#181818;stroke-width:1.0;"/><path d="M451.1559,62.6406 Q450.5777,62.9375 449.9371,63.0781 Q449.2965,63.2344 448.5934,63.2344 Q446.0934,63.2344 444.7652,61.5938 Q443.4527,59.9375 443.4527,56.8125 Q443.4527,53.6875 444.7652,52.0313 Q446.0934,50.375 448.5934,50.375 Q449.2965,50.375 449.9371,50.5313 Q450.5934,50.6875 451.1559,50.9844 L451.1559,53.7031 Q450.5309,53.125 449.9371,52.8594 Q449.3434,52.5781 448.7184,52.5781 Q447.3746,52.5781 446.6871,53.6563 Q445.9996,54.7188 445.9996,56.8125 Q445.9996,58.9063 446.6871,59.9844 Q447.3746,61.0469 448.7184,61.0469 Q449.3434,61.0469 449.9371,60.7813 Q450.5309,60.5 451.1559,59.9219 L451.1559,62.6406 Z " fill="#000000"/><text fill="#000000" font-family="sans-serif" font-size="14" lengthAdjust="spacing" textLength="111.1318" x="468.6871" y="61.8467">LeaveChatroom</text><line style="stroke:#181818;stroke-width:0.5;" x1="342.15" x2="673.8561" y1="73" y2="73"/><line style="stroke:#181818;stroke-width:0.5;" x1="342.15" x2="673.8561" y1="81" y2="81"/><ellipse cx="352.15" cy="94.6484" fill="#84BE84" rx="3" ry="3" style="stroke:#038048;stroke-width:1.0;"/><text fill="#000000" font-family="sans-serif" font-size="14" lengthAdjust="spacing" textLength="307.7061" x="361.15" y="97.9951">leaveChatroom(user: User, chatroom: Chat)</text></g><!--class JoinChatroom--><g id="elem_JoinChatroom"><rect codeLine="12" fill="#F1F1F1" height="64.2969" id="JoinChatroom" rx="2.5" ry="2.5" style="stroke:#181818;stroke-width:0.5;" width="320.9434" x="709.53" y="41"/><ellipse cx="818.4026" cy="57" fill="#ADD1B2" rx="11" ry="11" style="stroke:#181818;stroke-width:1.0;"/><path d="M821.3713,62.6406 Q820.7932,62.9375 820.1526,63.0781 Q819.5119,63.2344 818.8088,63.2344 Q816.3088,63.2344 814.9807,61.5938 Q813.6682,59.9375 813.6682,56.8125 Q813.6682,53.6875 814.9807,52.0313 Q816.3088,50.375 818.8088,50.375 Q819.5119,50.375 820.1526,50.5313 Q820.8088,50.6875 821.3713,50.9844 L821.3713,53.7031 Q820.7463,53.125 820.1526,52.8594 Q819.5588,52.5781 818.9338,52.5781 Q817.5901,52.5781 816.9026,53.6563 Q816.2151,54.7188 816.2151,56.8125 Q816.2151,58.9063 816.9026,59.9844 Q817.5901,61.0469 818.9338,61.0469 Q819.5588,61.0469 820.1526,60.7813 Q820.7463,60.5 821.3713,59.9219 L821.3713,62.6406 Z " fill="#000000"/><text fill="#000000" font-family="sans-serif" font-size="14" lengthAdjust="spacing" textLength="94.6982" x="838.9026" y="61.8467">JoinChatroom</text><line style="stroke:#181818;stroke-width:0.5;" x1="710.53" x2="1029.4734" y1="73" y2="73"/><line style="stroke:#181818;stroke-width:0.5;" x1="710.53" x2="1029.4734" y1="81" y2="81"/><ellipse cx="720.53" cy="94.6484" fill="#84BE84" rx="3" ry="3" style="stroke:#038048;stroke-width:1.0;"/><text fill="#000000" font-family="sans-serif" font-size="14" lengthAdjust="spacing" textLength="294.9434" x="729.53" y="97.9951">joinChatroom(user: User, chatroom: Chat)</text></g><!--class SendMessage--><g id="elem_SendMessage"><rect codeLine="16" fill="#F1F1F1" height="64.2969" id="SendMessage" rx="2.5" ry="2.5" style="stroke:#181818;stroke-width:0.5;" width="444.2773" x="21.86" y="165.29"/><ellipse cx="191.4391" cy="181.29" fill="#ADD1B2" rx="11" ry="11" style="stroke:#181818;stroke-width:1.0;"/><path d="M194.4079,186.9306 Q193.8297,187.2275 193.1891,187.3681 Q192.5485,187.5244 191.8454,187.5244 Q189.3454,187.5244 188.0172,185.8838 Q186.7047,184.2275 186.7047,181.1025 Q186.7047,177.9775 188.0172,176.3213 Q189.3454,174.665 191.8454,174.665 Q192.5485,174.665 193.1891,174.8213 Q193.8454,174.9775 194.4079,175.2744 L194.4079,177.9931 Q193.7829,177.415 193.1891,177.1494 Q192.5954,176.8681 191.9704,176.8681 Q190.6266,176.8681 189.9391,177.9463 Q189.2516,179.0088 189.2516,181.1025 Q189.2516,183.1963 189.9391,184.2744 Q190.6266,185.3369 191.9704,185.3369 Q192.5954,185.3369 193.1891,185.0713 Q193.7829,184.79 194.4079,184.2119 L194.4079,186.9306 Z " fill="#000000"/><text fill="#000000" font-family="sans-serif" font-size="14" lengthAdjust="spacing" textLength="96.6191" x="211.9391" y="186.1367">SendMessage</text><line style="stroke:#181818;stroke-width:0.5;" x1="22.86" x2="465.1373" y1="197.29" y2="197.29"/><line style="stroke:#181818;stroke-width:0.5;" x1="22.86" x2="465.1373" y1="205.29" y2="205.29"/><ellipse cx="32.86" cy="218.9384" fill="#84BE84" rx="3" ry="3" style="stroke:#038048;stroke-width:1.0;"/><text fill="#000000" font-family="sans-serif" font-size="14" lengthAdjust="spacing" textLength="418.2773" x="41.86" y="222.2851">sendMessage(user: User, chatroom: Chat, message: String)</text></g><!--class Chatbot--><g id="elem_Chatbot"><rect codeLine="20" fill="#F1F1F1" height="64.2969" id="Chatbot" rx="2.5" ry="2.5" style="stroke:#181818;stroke-width:0.5;" width="317.2041" x="501.4" y="165.29"/><ellipse cx="627.9229" cy="181.29" fill="#ADD1B2" rx="11" ry="11" style="stroke:#181818;stroke-width:1.0;"/><path d="M630.8917,186.9306 Q630.3136,187.2275 629.6729,187.3681 Q629.0323,187.5244 628.3292,187.5244 Q625.8292,187.5244 624.5011,185.8838 Q623.1886,184.2275 623.1886,181.1025 Q623.1886,177.9775 624.5011,176.3213 Q625.8292,174.665 628.3292,174.665 Q629.0323,174.665 629.6729,174.8213 Q630.3292,174.9775 630.8917,175.2744 L630.8917,177.9931 Q630.2667,177.415 629.6729,177.1494 Q629.0792,176.8681 628.4542,176.8681 Q627.1104,176.8681 626.4229,177.9463 Q625.7354,179.0088 625.7354,181.1025 Q625.7354,183.1963 626.4229,184.2744 Q627.1104,185.3369 628.4542,185.3369 Q629.0792,185.3369 629.6729,185.0713 Q630.2667,184.79 630.8917,184.2119 L630.8917,186.9306 Z " fill="#000000"/><text fill="#000000" font-family="sans-serif" font-size="14" lengthAdjust="spacing" textLength="55.6582" x="648.4229" y="186.1367">Chatbot</text><line style="stroke:#181818;stroke-width:0.5;" x1="502.4" x2="817.6041" y1="197.29" y2="197.29"/><line style="stroke:#181818;stroke-width:0.5;" x1="502.4" x2="817.6041" y1="205.29" y2="205.29"/><ellipse cx="512.4" cy="218.9384" fill="#84BE84" rx="3" ry="3" style="stroke:#038048;stroke-width:1.0;"/><text fill="#000000" font-family="sans-serif" font-size="14" lengthAdjust="spacing" textLength="291.2041" x="521.4" y="222.2851">processMessage(message: String): String</text></g><!--SRC=[ZS_13e8m30RW-vwYHuZu0hjoCteYFa2T3QAmaNLwCRox6pY6aXXtQ9g_tPUqHtN3cg2yeDkg5fc9uIc467ieBQ6ZCBJ6T7u0_cr0VSIPneuaLCuskixbQ8aX4dl2nrfebsbsPx8IZhuMeDxXvEG9sfb6hvph8loFgKYV3yGSheuAf-m7Ka0txSot9ZNCJyRDOc-DyiiH_VuO6myCBm00]--></g></svg>