<svg xmlns="http://www.w3.org/2000/svg" xmlns:xlink="http://www.w3.org/1999/xlink" contentStyleType="text/css" height="229px" preserveAspectRatio="none" style="width:844px;height:229px;background:#FFFFFF;" version="1.1" viewBox="0 0 844 229" width="844px" zoomAndPan="magnify"><defs/><g><!--cluster Chat_Class--><g id="cluster_Chat_Class"><rect fill="none" height="216.19" rx="2.5" ry="2.5" style="stroke:#000000;stroke-width:1.5;" width="831" x="7" y="7"/><text fill="#000000" font-family="sans-serif" font-size="14" font-weight="bold" lengthAdjust="spacing" textLength="84.5674" x="380.2163" y="21.9951">Chat_Class</text></g><rect fill="#F1F1F1" height="52.5938" rx="2.5" ry="2.5" style="stroke:#181818;stroke-width:0.5;" width="56.3809" x="438.81" y="42"/><text fill="#000000" font-family="sans-serif" font-size="14" font-weight="bold" lengthAdjust="spacing" textLength="36.3809" x="448.81" y="56.9951">Chat</text><rect fill="#F1F1F1" height="52.5938" rx="2.5" ry="2.5" style="stroke:#181818;stroke-width:0.5;" width="156.418" x="22.79" y="154.6"/><text fill="#000000" font-family="sans-serif" font-size="14" font-weight="bold" lengthAdjust="spacing" textLength="136.418" x="32.79" y="169.5951">Create_Chatroom</text><rect fill="#F1F1F1" height="52.5938" rx="2.5" ry="2.5" style="stroke:#181818;stroke-width:0.5;" width="150.5938" x="214.7" y="154.6"/><text fill="#000000" font-family="sans-serif" font-size="14" font-weight="bold" lengthAdjust="spacing" textLength="130.5938" x="224.7" y="169.5951">Leave_Chatroom</text><rect fill="#F1F1F1" height="52.5938" rx="2.5" ry="2.5" style="stroke:#181818;stroke-width:0.5;" width="133.7021" x="400.15" y="154.6"/><text fill="#000000" font-family="sans-serif" font-size="14" font-weight="bold" lengthAdjust="spacing" textLength="113.7021" x="410.15" y="169.5951">Join_Chatroom</text><rect fill="#F1F1F1" height="52.5938" rx="2.5" ry="2.5" style="stroke:#181818;stroke-width:0.5;" width="135.623" x="569.19" y="154.6"/><text fill="#000000" font-family="sans-serif" font-size="14" font-weight="bold" lengthAdjust="spacing" textLength="115.623" x="579.19" y="169.5951">Send_Message</text><rect fill="#F1F1F1" height="52.5938" rx="2.5" ry="2.5" style="stroke:#181818;stroke-width:0.5;" width="82.7129" x="739.64" y="154.6"/><text fill="#000000" font-family="sans-serif" font-size="14" font-weight="bold" lengthAdjust="spacing" textLength="62.7129" x="749.64" y="169.5951">Chatbot</text><!--link Chat to Create_Chatroom--><g id="link_Chat_Create_Chatroom"><path codeLine="17" d="M438.59,77.89 C383.58,94.51 266.5634,129.8642 185.2334,154.4442 " fill="none" id="Chat-to-Create_Chatroom" style="stroke:#181818;stroke-width:1.0;"/><polygon fill="#181818" points="179.49,156.18,189.2623,157.4052,184.2762,154.7335,186.9479,149.7473,179.49,156.18" style="stroke:#181818;stroke-width:1.0;"/></g><!--link Chat to Leave_Chatroom--><g id="link_Chat_Leave_Chatroom"><path codeLine="18" d="M438.56,87.07 C409.54,105.2 369.288,130.35 336.328,150.95 " fill="none" id="Chat-to-Leave_Chatroom" style="stroke:#181818;stroke-width:1.0;"/><polygon fill="#181818" points="331.24,154.13,340.992,152.752,335.48,151.48,336.752,145.968,331.24,154.13" style="stroke:#181818;stroke-width:1.0;"/></g><!--link Chat to Join_Chatroom--><g id="link_Chat_Join_Chatroom"><path codeLine="19" d="M467,94.95 C467,112.82 467,130.55 467,148.38 " fill="none" id="Chat-to-Join_Chatroom" style="stroke:#181818;stroke-width:1.0;"/><polygon fill="#181818" points="467,154.38,471,145.38,467,149.38,463,145.38,467,154.38" style="stroke:#181818;stroke-width:1.0;"/></g><!--link Chat to Send_Message--><g id="link_Chat_Send_Message"><path codeLine="20" d="M495.45,87.81 C523.43,106.01 561.3406,130.6681 592.5906,150.9981 " fill="none" id="Chat-to-Send_Message" style="stroke:#181818;stroke-width:1.0;"/><polygon fill="#181818" points="597.62,154.27,592.2572,146.0092,593.4289,151.5434,587.8947,152.7151,597.62,154.27" style="stroke:#181818;stroke-width:1.0;"/></g><!--link Chat to Chatbot--><g id="link_Chat_Chatbot"><path codeLine="21" d="M495.57,78.01 C543.01,92.67 640.86,123.69 722,154.6 C727.62,156.74 727.9601,156.7957 733.7301,159.1957 " fill="none" id="Chat-to-Chatbot" style="stroke:#181818;stroke-width:1.0;"/><polygon fill="#181818" points="739.27,161.5,732.4964,154.3503,734.6534,159.5798,729.424,161.7368,739.27,161.5" style="stroke:#181818;stroke-width:1.0;"/></g><!--SRC=[XOv12iCW44Ntdc8ka2jqarrf8P03o3GTaX2ZuWo5KdBtL8IefH1ty_uRv_CoMuy1L_0uB3XIBsz346WGjACXrIKCxOIYMuFCy57mVRu84jbg7WY5T8o3SokKpY7T25zdpjNDzaJfoJxrdPZZyDU8-mydHxWf5H4qpUMtQGxgTfbNZJ8kMnI_fyix]--></g></svg>