<svg xmlns="http://www.w3.org/2000/svg" xmlns:xlink="http://www.w3.org/1999/xlink" contentStyleType="text/css" height="229px" preserveAspectRatio="none" style="width:557px;height:229px;background:#FFFFFF;" version="1.1" viewBox="0 0 557 229" width="557px" zoomAndPan="magnify"><defs/><g><!--cluster Upload_Class--><g id="cluster_Upload_Class"><rect fill="none" height="216.19" rx="2.5" ry="2.5" style="stroke:#000000;stroke-width:1.5;" width="544" x="7" y="7"/><text fill="#000000" font-family="sans-serif" font-size="14" font-weight="bold" lengthAdjust="spacing" textLength="103.4619" x="227.269" y="21.9951">Upload_Class</text></g><rect fill="#F1F1F1" height="52.5938" rx="2.5" ry="2.5" style="stroke:#181818;stroke-width:0.5;" width="75.2754" x="216.36" y="42"/><text fill="#000000" font-family="sans-serif" font-size="14" font-weight="bold" lengthAdjust="spacing" textLength="55.2754" x="226.36" y="56.9951">Upload</text><rect fill="#F1F1F1" height="52.5938" rx="2.5" ry="2.5" style="stroke:#181818;stroke-width:0.5;" width="68.7607" x="22.62" y="154.6"/><text fill="#000000" font-family="sans-serif" font-size="14" font-weight="bold" lengthAdjust="spacing" textLength="48.7607" x="32.62" y="169.5951">Image</text><rect fill="#F1F1F1" height="52.5938" rx="2.5" ry="2.5" style="stroke:#181818;stroke-width:0.5;" width="64.7686" x="126.62" y="154.6"/><text fill="#000000" font-family="sans-serif" font-size="14" font-weight="bold" lengthAdjust="spacing" textLength="44.7686" x="136.62" y="169.5951">Video</text><rect fill="#F1F1F1" height="52.5938" rx="2.5" ry="2.5" style="stroke:#181818;stroke-width:0.5;" width="54.7676" x="226.62" y="154.6"/><text fill="#000000" font-family="sans-serif" font-size="14" font-weight="bold" lengthAdjust="spacing" textLength="34.7676" x="236.62" y="169.5951">Text</text><rect fill="#F1F1F1" height="52.5938" rx="2.5" ry="2.5" style="stroke:#181818;stroke-width:0.5;" width="95.6875" x="316.16" y="154.6"/><text fill="#000000" font-family="sans-serif" font-size="14" font-weight="bold" lengthAdjust="spacing" textLength="75.6875" x="326.16" y="169.5951">DateTime</text><rect fill="#F1F1F1" height="52.5938" rx="2.5" ry="2.5" style="stroke:#181818;stroke-width:0.5;" width="87.3613" x="447.32" y="154.6"/><text fill="#000000" font-family="sans-serif" font-size="14" font-weight="bold" lengthAdjust="spacing" textLength="67.3613" x="457.32" y="169.5951">Location</text><!--link Upload to Image--><g id="link_Upload_Image"><path codeLine="17" d="M216.02,90.62 C180.01,110.83 131.6315,137.9921 96.8015,157.5521 " fill="none" id="Upload-to-Image" style="stroke:#181818;stroke-width:1.0;"/><polygon fill="#181818" points="91.57,160.49,101.3759,159.5708,95.9296,158.0417,97.4586,152.5954,91.57,160.49" style="stroke:#181818;stroke-width:1.0;"/></g><!--link Upload to Video--><g id="link_Upload_Video"><path codeLine="18" d="M231.97,94.95 C216.62,112.82 200.1517,132.0004 184.8217,149.8304 " fill="none" id="Upload-to-Video" style="stroke:#181818;stroke-width:1.0;"/><polygon fill="#181818" points="180.91,154.38,189.8106,150.1634,184.1697,150.5887,183.7445,144.9478,180.91,154.38" style="stroke:#181818;stroke-width:1.0;"/></g><!--link Upload to DateTime--><g id="link_Upload_DateTime"><path codeLine="19" d="M279.51,94.95 C297.28,112.82 316.6581,132.2966 334.3981,150.1266 " fill="none" id="Upload-to-DateTime" style="stroke:#181818;stroke-width:1.0;"/><polygon fill="#181818" points="338.63,154.38,335.1177,145.1787,335.1034,150.8355,329.4466,150.8212,338.63,154.38" style="stroke:#181818;stroke-width:1.0;"/></g><!--link Upload to Text--><g id="link_Upload_Text"><path codeLine="20" d="M254,94.95 C254,112.82 254,130.55 254,148.38 " fill="none" id="Upload-to-Text" style="stroke:#181818;stroke-width:1.0;"/><polygon fill="#181818" points="254,154.38,258,145.38,254,149.38,250,145.38,254,154.38" style="stroke:#181818;stroke-width:1.0;"/></g><!--link Upload to Location--><g id="link_Upload_Location"><path codeLine="21" d="M292.08,87.07 C334.34,106.79 397.0131,136.0323 441.5331,156.8123 " fill="none" id="Upload-to-Location" style="stroke:#181818;stroke-width:1.0;"/><polygon fill="#181818" points="446.97,159.35,440.5064,151.9188,442.4392,157.2352,437.1228,159.168,446.97,159.35" style="stroke:#181818;stroke-width:1.0;"/></g><!--SRC=[AyxEp2j8B4hCLIX8JCvEJ4yDBgdCILKeIaqkISnBpqdb2e08AuGMvEGdfiGxvoGM5ojKSoa0GG6A54Ii5aN6CnT48il0fS8oKrBpiKk5f5QKO9TnIIn93SdCnM6aJtvoOabcVXvSjfQB2-8s1LrTEuXZa0N0Ja0MW1cFB0Po338VPWa0]--></g></svg>