<svg xmlns="http://www.w3.org/2000/svg" xmlns:xlink="http://www.w3.org/1999/xlink" contentStyleType="text/css" height="350px" preserveAspectRatio="none" style="width:545px;height:350px;background:#FFFFFF;" version="1.1" viewBox="0 0 545 350" width="545px" zoomAndPan="magnify"><defs/><g><!--cluster Data-Upload--><g id="cluster_Data-Upload"><path d="M8.5,6 L107.7939,6 A3.75,3.75 0 0 1 110.2939,8.5 L117.2939,28.2969 L535.5,28.2969 A2.5,2.5 0 0 1 538,30.7969 L538,340.87 A2.5,2.5 0 0 1 535.5,343.37 L8.5,343.37 A2.5,2.5 0 0 1 6,340.87 L6,8.5 A2.5,2.5 0 0 1 8.5,6 " fill="none" style="stroke:#000000;stroke-width:1.5;"/><line style="stroke:#000000;stroke-width:1.5;" x1="6" x2="117.2939" y1="28.2969" y2="28.2969"/><text fill="#000000" font-family="sans-serif" font-size="14" font-weight="bold" lengthAdjust="spacing" textLength="98.2939" x="10" y="20.9951">Data-Upload</text></g><!--class Image--><g id="elem_Image"><rect codeLine="2" fill="#F1F1F1" height="129.4844" id="Image" rx="2.5" ry="2.5" style="stroke:#181818;stroke-width:0.5;" width="121.1016" x="37.45" y="41"/><ellipse cx="72.8151" cy="57" fill="#ADD1B2" rx="11" ry="11" style="stroke:#181818;stroke-width:1.0;"/><path d="M75.7839,62.6406 Q75.2058,62.9375 74.5651,63.0781 Q73.9245,63.2344 73.2214,63.2344 Q70.7214,63.2344 69.3933,61.5938 Q68.0808,59.9375 68.0808,56.8125 Q68.0808,53.6875 69.3933,52.0313 Q70.7214,50.375 73.2214,50.375 Q73.9245,50.375 74.5651,50.5313 Q75.2214,50.6875 75.7839,50.9844 L75.7839,53.7031 Q75.1589,53.125 74.5651,52.8594 Q73.9714,52.5781 73.3464,52.5781 Q72.0026,52.5781 71.3151,53.6563 Q70.6276,54.7188 70.6276,56.8125 Q70.6276,58.9063 71.3151,59.9844 Q72.0026,61.0469 73.3464,61.0469 Q73.9714,61.0469 74.5651,60.7813 Q75.1589,60.5 75.7839,59.9219 L75.7839,62.6406 Z " fill="#000000"/><text fill="#000000" font-family="sans-serif" font-size="14" lengthAdjust="spacing" textLength="43.8457" x="91.3407" y="61.8467">Image</text><line style="stroke:#181818;stroke-width:0.5;" x1="38.45" x2="157.5516" y1="73" y2="73"/><rect fill="none" height="6" style="stroke:#C82930;stroke-width:1.0;" width="6" x="45.45" y="83.6484"/><text fill="#000000" font-family="sans-serif" font-size="14" lengthAdjust="spacing" textLength="44.6455" x="57.45" y="89.9951">id : int</text><rect fill="none" height="6" style="stroke:#C82930;stroke-width:1.0;" width="6" x="45.45" y="99.9453"/><text fill="#000000" font-family="sans-serif" font-size="14" lengthAdjust="spacing" textLength="95.1016" x="57.45" y="106.292">name : String</text><rect fill="none" height="6" style="stroke:#C82930;stroke-width:1.0;" width="6" x="45.45" y="116.2422"/><text fill="#000000" font-family="sans-serif" font-size="14" lengthAdjust="spacing" textLength="87.2266" x="57.45" y="122.5889">path : String</text><rect fill="none" height="6" style="stroke:#C82930;stroke-width:1.0;" width="6" x="45.45" y="132.5391"/><text fill="#000000" font-family="sans-serif" font-size="14" lengthAdjust="spacing" textLength="86.6729" x="57.45" y="138.8857">type : String</text><rect fill="none" height="6" style="stroke:#C82930;stroke-width:1.0;" width="6" x="45.45" y="148.8359"/><text fill="#000000" font-family="sans-serif" font-size="14" lengthAdjust="spacing" textLength="59.0146" x="57.45" y="155.1826">size : int</text><line style="stroke:#181818;stroke-width:0.5;" x1="38.45" x2="157.5516" y1="162.4844" y2="162.4844"/></g><!--class Video--><g id="elem_Video"><rect codeLine="9" fill="#F1F1F1" height="129.4844" id="Video" rx="2.5" ry="2.5" style="stroke:#181818;stroke-width:0.5;" width="121.1016" x="193.45" y="41"/><ellipse cx="230.7562" cy="57" fill="#ADD1B2" rx="11" ry="11" style="stroke:#181818;stroke-width:1.0;"/><path d="M233.725,62.6406 Q233.1468,62.9375 232.5062,63.0781 Q231.8656,63.2344 231.1625,63.2344 Q228.6625,63.2344 227.3343,61.5938 Q226.0218,59.9375 226.0218,56.8125 Q226.0218,53.6875 227.3343,52.0313 Q228.6625,50.375 231.1625,50.375 Q231.8656,50.375 232.5062,50.5313 Q233.1625,50.6875 233.725,50.9844 L233.725,53.7031 Q233.1,53.125 232.5062,52.8594 Q231.9125,52.5781 231.2875,52.5781 Q229.9437,52.5781 229.2562,53.6563 Q228.5687,54.7188 228.5687,56.8125 Q228.5687,58.9063 229.2562,59.9844 Q229.9437,61.0469 231.2875,61.0469 Q231.9125,61.0469 232.5062,60.7813 Q233.1,60.5 233.725,59.9219 L233.725,62.6406 Z " fill="#000000"/><text fill="#000000" font-family="sans-serif" font-size="14" lengthAdjust="spacing" textLength="39.5322" x="249.7131" y="61.8467">Video</text><line style="stroke:#181818;stroke-width:0.5;" x1="194.45" x2="313.5516" y1="73" y2="73"/><rect fill="none" height="6" style="stroke:#C82930;stroke-width:1.0;" width="6" x="201.45" y="83.6484"/><text fill="#000000" font-family="sans-serif" font-size="14" lengthAdjust="spacing" textLength="44.6455" x="213.45" y="89.9951">id : int</text><rect fill="none" height="6" style="stroke:#C82930;stroke-width:1.0;" width="6" x="201.45" y="99.9453"/><text fill="#000000" font-family="sans-serif" font-size="14" lengthAdjust="spacing" textLength="95.1016" x="213.45" y="106.292">name : String</text><rect fill="none" height="6" style="stroke:#C82930;stroke-width:1.0;" width="6" x="201.45" y="116.2422"/><text fill="#000000" font-family="sans-serif" font-size="14" lengthAdjust="spacing" textLength="87.2266" x="213.45" y="122.5889">path : String</text><rect fill="none" height="6" style="stroke:#C82930;stroke-width:1.0;" width="6" x="201.45" y="132.5391"/><text fill="#000000" font-family="sans-serif" font-size="14" lengthAdjust="spacing" textLength="86.6729" x="213.45" y="138.8857">type : String</text><rect fill="none" height="6" style="stroke:#C82930;stroke-width:1.0;" width="6" x="201.45" y="148.8359"/><text fill="#000000" font-family="sans-serif" font-size="14" lengthAdjust="spacing" textLength="59.0146" x="213.45" y="155.1826">size : int</text><line style="stroke:#181818;stroke-width:0.5;" x1="194.45" x2="313.5516" y1="162.4844" y2="162.4844"/></g><!--class Text--><g id="elem_Text"><rect codeLine="16" fill="#F1F1F1" height="80.5938" id="Text" rx="2.5" ry="2.5" style="stroke:#181818;stroke-width:0.5;" width="134.999" x="349.5" y="65.44"/><ellipse cx="397.2798" cy="81.44" fill="#ADD1B2" rx="11" ry="11" style="stroke:#181818;stroke-width:1.0;"/><path d="M400.2485,87.0806 Q399.6704,87.3775 399.0298,87.5181 Q398.3892,87.6744 397.686,87.6744 Q395.186,87.6744 393.8579,86.0338 Q392.5454,84.3775 392.5454,81.2525 Q392.5454,78.1275 393.8579,76.4713 Q395.186,74.815 397.686,74.815 Q398.3892,74.815 399.0298,74.9713 Q399.686,75.1275 400.2485,75.4244 L400.2485,78.1431 Q399.6235,77.565 399.0298,77.2994 Q398.436,77.0181 397.811,77.0181 Q396.4673,77.0181 395.7798,78.0963 Q395.0923,79.1588 395.0923,81.2525 Q395.0923,83.3463 395.7798,84.4244 Q396.4673,85.4869 397.811,85.4869 Q398.436,85.4869 399.0298,85.2213 Q399.6235,84.94 400.2485,84.3619 L400.2485,87.0806 Z " fill="#000000"/><text fill="#000000" font-family="sans-serif" font-size="14" lengthAdjust="spacing" textLength="30.9395" x="417.7798" y="86.2867">Text</text><line style="stroke:#181818;stroke-width:0.5;" x1="350.5" x2="483.499" y1="97.44" y2="97.44"/><rect fill="none" height="6" style="stroke:#C82930;stroke-width:1.0;" width="6" x="357.5" y="108.0884"/><text fill="#000000" font-family="sans-serif" font-size="14" lengthAdjust="spacing" textLength="44.6455" x="369.5" y="114.4351">id : int</text><rect fill="none" height="6" style="stroke:#C82930;stroke-width:1.0;" width="6" x="357.5" y="124.3853"/><text fill="#000000" font-family="sans-serif" font-size="14" lengthAdjust="spacing" textLength="108.999" x="369.5" y="130.732">content : String</text><line style="stroke:#181818;stroke-width:0.5;" x1="350.5" x2="483.499" y1="138.0338" y2="138.0338"/></g><!--class User--><g id="elem_User"><rect codeLine="22" fill="#F1F1F1" height="80.5938" id="User" rx="2.5" ry="2.5" style="stroke:#181818;stroke-width:0.5;" width="151.6377" x="22.18" y="238.63"/><ellipse cx="77.7938" cy="254.63" fill="#ADD1B2" rx="11" ry="11" style="stroke:#181818;stroke-width:1.0;"/><path d="M80.7625,260.2706 Q80.1844,260.5675 79.5438,260.7081 Q78.9031,260.8644 78.2,260.8644 Q75.7,260.8644 74.3719,259.2238 Q73.0594,257.5675 73.0594,254.4425 Q73.0594,251.3175 74.3719,249.6613 Q75.7,248.005 78.2,248.005 Q78.9031,248.005 79.5438,248.1613 Q80.2,248.3175 80.7625,248.6144 L80.7625,251.3331 Q80.1375,250.755 79.5438,250.4894 Q78.95,250.2081 78.325,250.2081 Q76.9813,250.2081 76.2938,251.2863 Q75.6063,252.3488 75.6063,254.4425 Q75.6063,256.5363 76.2938,257.6144 Q76.9813,258.6769 78.325,258.6769 Q78.95,258.6769 79.5438,258.4113 Q80.1375,258.13 80.7625,257.5519 L80.7625,260.2706 Z " fill="#000000"/><text fill="#000000" font-family="sans-serif" font-size="14" lengthAdjust="spacing" textLength="31.9102" x="98.2938" y="259.4767">User</text><line style="stroke:#181818;stroke-width:0.5;" x1="23.18" x2="172.8177" y1="270.63" y2="270.63"/><rect fill="none" height="6" style="stroke:#C82930;stroke-width:1.0;" width="6" x="30.18" y="281.2784"/><text fill="#000000" font-family="sans-serif" font-size="14" lengthAdjust="spacing" textLength="44.6455" x="42.18" y="287.6251">id : int</text><rect fill="none" height="6" style="stroke:#C82930;stroke-width:1.0;" width="6" x="30.18" y="297.5753"/><text fill="#000000" font-family="sans-serif" font-size="14" lengthAdjust="spacing" textLength="125.6377" x="42.18" y="303.922">username : String</text><line style="stroke:#181818;stroke-width:0.5;" x1="23.18" x2="172.8177" y1="311.2238" y2="311.2238"/></g><!--class Geodata--><g id="elem_Geodata"><rect codeLine="27" fill="#F1F1F1" height="96.8906" id="Geodata" rx="2.5" ry="2.5" style="stroke:#181818;stroke-width:0.5;" width="123.8359" x="209.08" y="230.48"/><ellipse cx="238.6035" cy="246.48" fill="#ADD1B2" rx="11" ry="11" style="stroke:#181818;stroke-width:1.0;"/><path d="M241.5722,252.1206 Q240.9941,252.4175 240.3535,252.5581 Q239.7129,252.7144 239.0097,252.7144 Q236.5097,252.7144 235.1816,251.0738 Q233.8691,249.4175 233.8691,246.2925 Q233.8691,243.1675 235.1816,241.5113 Q236.5097,239.855 239.0097,239.855 Q239.7129,239.855 240.3535,240.0113 Q241.0097,240.1675 241.5722,240.4644 L241.5722,243.1831 Q240.9472,242.605 240.3535,242.3394 Q239.7597,242.0581 239.1347,242.0581 Q237.791,242.0581 237.1035,243.1363 Q236.416,244.1988 236.416,246.2925 Q236.416,248.3863 237.1035,249.4644 Q237.791,250.5269 239.1347,250.5269 Q239.7597,250.5269 240.3535,250.2613 Q240.9472,249.98 241.5722,249.4019 L241.5722,252.1206 Z " fill="#000000"/><text fill="#000000" font-family="sans-serif" font-size="14" lengthAdjust="spacing" textLength="59.5615" x="255.8309" y="251.3267">Geodata</text><line style="stroke:#181818;stroke-width:0.5;" x1="210.08" x2="331.9159" y1="262.48" y2="262.48"/><rect fill="none" height="6" style="stroke:#C82930;stroke-width:1.0;" width="6" x="217.08" y="273.1284"/><text fill="#000000" font-family="sans-serif" font-size="14" lengthAdjust="spacing" textLength="44.6455" x="229.08" y="279.4751">id : int</text><rect fill="none" height="6" style="stroke:#C82930;stroke-width:1.0;" width="6" x="217.08" y="289.4253"/><text fill="#000000" font-family="sans-serif" font-size="14" lengthAdjust="spacing" textLength="89.4893" x="229.08" y="295.772">Latitude : int</text><rect fill="none" height="6" style="stroke:#C82930;stroke-width:1.0;" width="6" x="217.08" y="305.7222"/><text fill="#000000" font-family="sans-serif" font-size="14" lengthAdjust="spacing" textLength="97.8359" x="229.08" y="312.0689">longitude : int</text><line style="stroke:#181818;stroke-width:0.5;" x1="210.08" x2="331.9159" y1="319.3706" y2="319.3706"/></g><!--class DateTime--><g id="elem_DateTime"><rect codeLine="32" fill="#F1F1F1" height="80.5938" id="DateTime" rx="2.5" ry="2.5" style="stroke:#181818;stroke-width:0.5;" width="154.2217" x="367.89" y="238.63"/><ellipse cx="407.2203" cy="254.63" fill="#ADD1B2" rx="11" ry="11" style="stroke:#181818;stroke-width:1.0;"/><path d="M410.1891,260.2706 Q409.6109,260.5675 408.9703,260.7081 Q408.3297,260.8644 407.6266,260.8644 Q405.1266,260.8644 403.7984,259.2238 Q402.4859,257.5675 402.4859,254.4425 Q402.4859,251.3175 403.7984,249.6613 Q405.1266,248.005 407.6266,248.005 Q408.3297,248.005 408.9703,248.1613 Q409.6266,248.3175 410.1891,248.6144 L410.1891,251.3331 Q409.5641,250.755 408.9703,250.4894 Q408.3766,250.2081 407.7516,250.2081 Q406.4078,250.2081 405.7203,251.2863 Q405.0328,252.3488 405.0328,254.4425 Q405.0328,256.5363 405.7203,257.6144 Q406.4078,258.6769 407.7516,258.6769 Q408.3766,258.6769 408.9703,258.4113 Q409.5641,258.13 410.1891,257.5519 L410.1891,260.2706 Z " fill="#000000"/><text fill="#000000" font-family="sans-serif" font-size="14" lengthAdjust="spacing" textLength="68.1543" x="426.6271" y="259.4767">DateTime</text><line style="stroke:#181818;stroke-width:0.5;" x1="368.89" x2="521.1117" y1="270.63" y2="270.63"/><rect fill="none" height="6" style="stroke:#C82930;stroke-width:1.0;" width="6" x="375.89" y="281.2784"/><text fill="#000000" font-family="sans-serif" font-size="14" lengthAdjust="spacing" textLength="44.6455" x="387.89" y="287.6251">id : int</text><rect fill="none" height="6" style="stroke:#C82930;stroke-width:1.0;" width="6" x="375.89" y="297.5753"/><text fill="#000000" font-family="sans-serif" font-size="14" lengthAdjust="spacing" textLength="128.2217" x="387.89" y="303.922">uploadDate : Date</text><line style="stroke:#181818;stroke-width:0.5;" x1="368.89" x2="521.1117" y1="311.2238" y2="311.2238"/></g><!--SRC=[lP5D2i8m48NtFKKkq0ku5aHmP-j-I8Owc3-Q2QYbTtSgKQoIhTc4V3Dltf0NGLzWGBK5XhQFDe2P6cqX9RLtIs5gb9nMaL4RHPxBquD30KSUoG-5HU3pD-DR_EbBTCSoR2vU9p8O_kJLuPLhLZfuHi_hAQ8iqZxXM9DcgQqtVSjs68pyRqrv02RE1bVG1ZzyqjVs4XHsvAh1v6U6IvVWvHBb_000]--></g></svg>