<svg xmlns="http://www.w3.org/2000/svg" xmlns:xlink="http://www.w3.org/1999/xlink" contentStyleType="text/css" height="425px" preserveAspectRatio="none" style="width:551px;height:425px;background:#FFFFFF;" version="1.1" viewBox="0 0 551 425" width="551px" zoomAndPan="magnify"><defs/><g><!--cluster Search-classes--><g id="cluster_Search-classes"><path d="M8.5,6 L126.5449,6 A3.75,3.75 0 0 1 129.0449,8.5 L136.0449,28.2969 L541.5,28.2969 A2.5,2.5 0 0 1 544,30.7969 L544,416.28 A2.5,2.5 0 0 1 541.5,418.78 L8.5,418.78 A2.5,2.5 0 0 1 6,416.28 L6,8.5 A2.5,2.5 0 0 1 8.5,6 " fill="none" style="stroke:#000000;stroke-width:1.5;"/><line style="stroke:#000000;stroke-width:1.5;" x1="6" x2="136.0449" y1="28.2969" y2="28.2969"/><text fill="#000000" font-family="sans-serif" font-size="14" font-weight="bold" lengthAdjust="spacing" textLength="117.0449" x="10" y="20.9951">Search-classes</text></g><!--class Image--><g id="elem_Image"><rect codeLine="2" fill="#F1F1F1" height="80.5938" id="Image" rx="2.5" ry="2.5" style="stroke:#181818;stroke-width:0.5;" width="146.0049" x="22" y="41"/><ellipse cx="68.8296" cy="57" fill="#ADD1B2" rx="11" ry="11" style="stroke:#181818;stroke-width:1.0;"/><path d="M71.7983,62.6406 Q71.2202,62.9375 70.5796,63.0781 Q69.939,63.2344 69.2358,63.2344 Q66.7358,63.2344 65.4077,61.5938 Q64.0952,59.9375 64.0952,56.8125 Q64.0952,53.6875 65.4077,52.0313 Q66.7358,50.375 69.2358,50.375 Q69.939,50.375 70.5796,50.5313 Q71.2358,50.6875 71.7983,50.9844 L71.7983,53.7031 Q71.1733,53.125 70.5796,52.8594 Q69.9858,52.5781 69.3608,52.5781 Q68.0171,52.5781 67.3296,53.6563 Q66.6421,54.7188 66.6421,56.8125 Q66.6421,58.9063 67.3296,59.9844 Q68.0171,61.0469 69.3608,61.0469 Q69.9858,61.0469 70.5796,60.7813 Q71.1733,60.5 71.7983,59.9219 L71.7983,62.6406 Z " fill="#000000"/><text fill="#000000" font-family="sans-serif" font-size="14" lengthAdjust="spacing" textLength="43.8457" x="89.3296" y="61.8467">Image</text><line style="stroke:#181818;stroke-width:0.5;" x1="23" x2="167.0049" y1="73" y2="73"/><line style="stroke:#181818;stroke-width:0.5;" x1="23" x2="167.0049" y1="81" y2="81"/><rect fill="#F24D5C" height="6" style="stroke:#C82930;stroke-width:1.0;" width="6" x="30" y="91.6484"/><text fill="#000000" font-family="sans-serif" font-size="14" lengthAdjust="spacing" textLength="120.0049" x="42" y="97.9951">input : (img_file);</text><ellipse cx="33" cy="110.9453" fill="#84BE84" rx="3" ry="3" style="stroke:#038048;stroke-width:1.0;"/><text fill="#000000" font-family="sans-serif" font-size="14" lengthAdjust="spacing" textLength="75.4346" x="42" y="114.292">output : ();</text></g><!--class Video--><g id="elem_Video"><rect codeLine="6" fill="#F1F1F1" height="80.5938" id="Video" rx="2.5" ry="2.5" style="stroke:#181818;stroke-width:0.5;" width="157.8311" x="203.08" y="41"/><ellipse cx="257.9794" cy="57" fill="#ADD1B2" rx="11" ry="11" style="stroke:#181818;stroke-width:1.0;"/><path d="M260.9482,62.6406 Q260.37,62.9375 259.7294,63.0781 Q259.0888,63.2344 258.3857,63.2344 Q255.8857,63.2344 254.5575,61.5938 Q253.245,59.9375 253.245,56.8125 Q253.245,53.6875 254.5575,52.0313 Q255.8857,50.375 258.3857,50.375 Q259.0888,50.375 259.7294,50.5313 Q260.3857,50.6875 260.9482,50.9844 L260.9482,53.7031 Q260.3232,53.125 259.7294,52.8594 Q259.1357,52.5781 258.5107,52.5781 Q257.1669,52.5781 256.4794,53.6563 Q255.7919,54.7188 255.7919,56.8125 Q255.7919,58.9063 256.4794,59.9844 Q257.1669,61.0469 258.5107,61.0469 Q259.1357,61.0469 259.7294,60.7813 Q260.3232,60.5 260.9482,59.9219 L260.9482,62.6406 Z " fill="#000000"/><text fill="#000000" font-family="sans-serif" font-size="14" lengthAdjust="spacing" textLength="39.5322" x="278.4794" y="61.8467">Video</text><line style="stroke:#181818;stroke-width:0.5;" x1="204.08" x2="359.9111" y1="73" y2="73"/><line style="stroke:#181818;stroke-width:0.5;" x1="204.08" x2="359.9111" y1="81" y2="81"/><rect fill="#F24D5C" height="6" style="stroke:#C82930;stroke-width:1.0;" width="6" x="211.08" y="91.6484"/><text fill="#000000" font-family="sans-serif" font-size="14" lengthAdjust="spacing" textLength="131.8311" x="223.08" y="97.9951">input : (video_file);</text><ellipse cx="214.08" cy="110.9453" fill="#84BE84" rx="3" ry="3" style="stroke:#038048;stroke-width:1.0;"/><text fill="#000000" font-family="sans-serif" font-size="14" lengthAdjust="spacing" textLength="75.4346" x="223.08" y="114.292">output : ();</text></g><!--class Topic--><g id="elem_Topic"><rect codeLine="10" fill="#F1F1F1" height="80.5938" id="Topic" rx="2.5" ry="2.5" style="stroke:#181818;stroke-width:0.5;" width="131.458" x="396.27" y="41"/><ellipse cx="439.1102" cy="57" fill="#ADD1B2" rx="11" ry="11" style="stroke:#181818;stroke-width:1.0;"/><path d="M442.079,62.6406 Q441.5009,62.9375 440.8602,63.0781 Q440.2196,63.2344 439.5165,63.2344 Q437.0165,63.2344 435.6884,61.5938 Q434.3759,59.9375 434.3759,56.8125 Q434.3759,53.6875 435.6884,52.0313 Q437.0165,50.375 439.5165,50.375 Q440.2196,50.375 440.8602,50.5313 Q441.5165,50.6875 442.079,50.9844 L442.079,53.7031 Q441.454,53.125 440.8602,52.8594 Q440.2665,52.5781 439.6415,52.5781 Q438.2977,52.5781 437.6102,53.6563 Q436.9227,54.7188 436.9227,56.8125 Q436.9227,58.9063 437.6102,59.9844 Q438.2977,61.0469 439.6415,61.0469 Q440.2665,61.0469 440.8602,60.7813 Q441.454,60.5 442.079,59.9219 L442.079,62.6406 Z " fill="#000000"/><text fill="#000000" font-family="sans-serif" font-size="14" lengthAdjust="spacing" textLength="37.5908" x="459.297" y="61.8467">Topic</text><line style="stroke:#181818;stroke-width:0.5;" x1="397.27" x2="526.728" y1="73" y2="73"/><line style="stroke:#181818;stroke-width:0.5;" x1="397.27" x2="526.728" y1="81" y2="81"/><rect fill="#F24D5C" height="6" style="stroke:#C82930;stroke-width:1.0;" width="6" x="404.27" y="91.6484"/><text fill="#000000" font-family="sans-serif" font-size="14" lengthAdjust="spacing" textLength="105.458" x="416.27" y="97.9951">input : (string);</text><ellipse cx="407.27" cy="110.9453" fill="#84BE84" rx="3" ry="3" style="stroke:#038048;stroke-width:1.0;"/><text fill="#000000" font-family="sans-serif" font-size="14" lengthAdjust="spacing" textLength="75.4346" x="416.27" y="114.292">output : ();</text></g><!--class Category--><g id="elem_Category"><rect codeLine="14" fill="#F1F1F1" height="80.5938" id="Category" rx="2.5" ry="2.5" style="stroke:#181818;stroke-width:0.5;" width="159.0205" x="22.49" y="181.59"/><ellipse cx="65.8716" cy="197.59" fill="#ADD1B2" rx="11" ry="11" style="stroke:#181818;stroke-width:1.0;"/><path d="M68.8404,203.2306 Q68.2623,203.5275 67.6216,203.6681 Q66.981,203.8244 66.2779,203.8244 Q63.7779,203.8244 62.4498,202.1837 Q61.1373,200.5275 61.1373,197.4025 Q61.1373,194.2775 62.4498,192.6212 Q63.7779,190.965 66.2779,190.965 Q66.981,190.965 67.6216,191.1212 Q68.2779,191.2775 68.8404,191.5744 L68.8404,194.2931 Q68.2154,193.715 67.6216,193.4494 Q67.0279,193.1681 66.4029,193.1681 Q65.0591,193.1681 64.3716,194.2462 Q63.6841,195.3087 63.6841,197.4025 Q63.6841,199.4962 64.3716,200.5744 Q65.0591,201.6369 66.4029,201.6369 Q67.0279,201.6369 67.6216,201.3712 Q68.2154,201.09 68.8404,200.5119 L68.8404,203.2306 Z " fill="#000000"/><text fill="#000000" font-family="sans-serif" font-size="14" lengthAdjust="spacing" textLength="63.9502" x="86.1787" y="202.4367">Category</text><line style="stroke:#181818;stroke-width:0.5;" x1="23.49" x2="180.5105" y1="213.59" y2="213.59"/><line style="stroke:#181818;stroke-width:0.5;" x1="23.49" x2="180.5105" y1="221.59" y2="221.59"/><rect fill="#F24D5C" height="6" style="stroke:#C82930;stroke-width:1.0;" width="6" x="30.49" y="232.2384"/><text fill="#000000" font-family="sans-serif" font-size="14" lengthAdjust="spacing" textLength="133.0205" x="42.49" y="238.5851">input : (list_string);</text><ellipse cx="33.49" cy="251.5353" fill="#84BE84" rx="3" ry="3" style="stroke:#038048;stroke-width:1.0;"/><text fill="#000000" font-family="sans-serif" font-size="14" lengthAdjust="spacing" textLength="75.4346" x="42.49" y="254.882">output : ();</text></g><!--class Language--><g id="elem_Language"><rect codeLine="18" fill="#F1F1F1" height="80.5938" id="Language" rx="2.5" ry="2.5" style="stroke:#181818;stroke-width:0.5;" width="111.832" x="216.08" y="181.59"/><ellipse cx="235.9135" cy="197.59" fill="#ADD1B2" rx="11" ry="11" style="stroke:#181818;stroke-width:1.0;"/><path d="M238.8823,203.2306 Q238.3042,203.5275 237.6635,203.6681 Q237.0229,203.8244 236.3198,203.8244 Q233.8198,203.8244 232.4917,202.1837 Q231.1792,200.5275 231.1792,197.4025 Q231.1792,194.2775 232.4917,192.6212 Q233.8198,190.965 236.3198,190.965 Q237.0229,190.965 237.6635,191.1212 Q238.3198,191.2775 238.8823,191.5744 L238.8823,194.2931 Q238.2573,193.715 237.6635,193.4494 Q237.0698,193.1681 236.4448,193.1681 Q235.101,193.1681 234.4135,194.2462 Q233.726,195.3087 233.726,197.4025 Q233.726,199.4962 234.4135,200.5744 Q235.101,201.6369 236.4448,201.6369 Q237.0698,201.6369 237.6635,201.3712 Q238.2573,201.09 238.8823,200.5119 L238.8823,203.2306 Z " fill="#000000"/><text fill="#000000" font-family="sans-serif" font-size="14" lengthAdjust="spacing" textLength="69.0908" x="250.9877" y="202.4367">Language</text><line style="stroke:#181818;stroke-width:0.5;" x1="217.08" x2="326.912" y1="213.59" y2="213.59"/><line style="stroke:#181818;stroke-width:0.5;" x1="217.08" x2="326.912" y1="221.59" y2="221.59"/><rect fill="#F24D5C" height="6" style="stroke:#C82930;stroke-width:1.0;" width="6" x="224.08" y="232.2384"/><text fill="#000000" font-family="sans-serif" font-size="14" lengthAdjust="spacing" textLength="85.832" x="236.08" y="238.5851">input : (list);</text><ellipse cx="227.08" cy="251.5353" fill="#84BE84" rx="3" ry="3" style="stroke:#038048;stroke-width:1.0;"/><text fill="#000000" font-family="sans-serif" font-size="14" lengthAdjust="spacing" textLength="75.4346" x="236.08" y="254.882">output : ();</text></g><!--class Date--><g id="elem_Date"><rect codeLine="22" fill="#F1F1F1" height="80.5938" id="Date" rx="2.5" ry="2.5" style="stroke:#181818;stroke-width:0.5;" width="158.918" x="362.54" y="181.59"/><ellipse cx="421.018" cy="197.59" fill="#ADD1B2" rx="11" ry="11" style="stroke:#181818;stroke-width:1.0;"/><path d="M423.9868,203.2306 Q423.4087,203.5275 422.768,203.6681 Q422.1274,203.8244 421.4243,203.8244 Q418.9243,203.8244 417.5962,202.1837 Q416.2837,200.5275 416.2837,197.4025 Q416.2837,194.2775 417.5962,192.6212 Q418.9243,190.965 421.4243,190.965 Q422.1274,190.965 422.768,191.1212 Q423.4243,191.2775 423.9868,191.5744 L423.9868,194.2931 Q423.3618,193.715 422.768,193.4494 Q422.1743,193.1681 421.5493,193.1681 Q420.2055,193.1681 419.518,194.2462 Q418.8305,195.3087 418.8305,197.4025 Q418.8305,199.4962 419.518,200.5744 Q420.2055,201.6369 421.5493,201.6369 Q422.1743,201.6369 422.768,201.3712 Q423.3618,201.09 423.9868,200.5119 L423.9868,203.2306 Z " fill="#000000"/><text fill="#000000" font-family="sans-serif" font-size="14" lengthAdjust="spacing" textLength="33.4619" x="441.518" y="202.4367">Date</text><line style="stroke:#181818;stroke-width:0.5;" x1="363.54" x2="520.458" y1="213.59" y2="213.59"/><line style="stroke:#181818;stroke-width:0.5;" x1="363.54" x2="520.458" y1="221.59" y2="221.59"/><rect fill="#F24D5C" height="6" style="stroke:#C82930;stroke-width:1.0;" width="6" x="370.54" y="232.2384"/><text fill="#000000" font-family="sans-serif" font-size="14" lengthAdjust="spacing" textLength="132.918" x="382.54" y="238.5851">input : (date,time);</text><ellipse cx="373.54" cy="251.5353" fill="#84BE84" rx="3" ry="3" style="stroke:#038048;stroke-width:1.0;"/><text fill="#000000" font-family="sans-serif" font-size="14" lengthAdjust="spacing" textLength="75.4346" x="382.54" y="254.882">output : ();</text></g><!--class Map--><g id="elem_Map"><rect codeLine="26" fill="#F1F1F1" height="80.5938" id="Map" rx="2.5" ry="2.5" style="stroke:#181818;stroke-width:0.5;" width="149.9355" x="27.03" y="322.19"/><ellipse cx="82.9753" cy="338.19" fill="#ADD1B2" rx="11" ry="11" style="stroke:#181818;stroke-width:1.0;"/><path d="M85.9441,343.8306 Q85.3659,344.1275 84.7253,344.2681 Q84.0847,344.4244 83.3816,344.4244 Q80.8816,344.4244 79.5534,342.7837 Q78.2409,341.1275 78.2409,338.0025 Q78.2409,334.8775 79.5534,333.2212 Q80.8816,331.565 83.3816,331.565 Q84.0847,331.565 84.7253,331.7212 Q85.3816,331.8775 85.9441,332.1744 L85.9441,334.8931 Q85.3191,334.315 84.7253,334.0494 Q84.1316,333.7681 83.5066,333.7681 Q82.1628,333.7681 81.4753,334.8462 Q80.7878,335.9087 80.7878,338.0025 Q80.7878,340.0962 81.4753,341.1744 Q82.1628,342.2369 83.5066,342.2369 Q84.1316,342.2369 84.7253,341.9712 Q85.3191,341.69 85.9441,341.1119 L85.9441,343.8306 Z " fill="#000000"/><text fill="#000000" font-family="sans-serif" font-size="14" lengthAdjust="spacing" textLength="29.5449" x="103.4753" y="343.0367">Map</text><line style="stroke:#181818;stroke-width:0.5;" x1="28.03" x2="175.9655" y1="354.19" y2="354.19"/><line style="stroke:#181818;stroke-width:0.5;" x1="28.03" x2="175.9655" y1="362.19" y2="362.19"/><rect fill="#F24D5C" height="6" style="stroke:#C82930;stroke-width:1.0;" width="6" x="35.03" y="372.8384"/><text fill="#000000" font-family="sans-serif" font-size="14" lengthAdjust="spacing" textLength="123.9355" x="47.03" y="379.1851">input : (list_map);</text><ellipse cx="38.03" cy="392.1353" fill="#84BE84" rx="3" ry="3" style="stroke:#038048;stroke-width:1.0;"/><text fill="#000000" font-family="sans-serif" font-size="14" lengthAdjust="spacing" textLength="75.4346" x="47.03" y="395.482">output : ();</text></g><!--SRC=[XSyx3W8X483XVaynfKRt0bfgOwALndOpOH4dyWeF4sFsxe9Q4SBIySCN68liWOB3cQDZzvv9z9vxU7UGrdS71vKlvD83QHi3R611IWmtadovJNq59eR_GGfJzuDN6hafuJF7MNenbbX9VN2aHOljC71XtAkKadmOvlaHjOYLOJDlkNrwjZHZQkj0gZdc2MtrgmfjdKqV]--></g></svg>