<svg xmlns="http://www.w3.org/2000/svg" xmlns:xlink="http://www.w3.org/1999/xlink" contentStyleType="text/css" height="229px" preserveAspectRatio="none" style="width:912px;height:229px;background:#FFFFFF;" version="1.1" viewBox="0 0 912 229" width="912px" zoomAndPan="magnify"><defs/><g><!--cluster Search_Class__by/type--><g id="cluster_Search_Class__by/type"><rect fill="none" height="216.19" rx="2.5" ry="2.5" style="stroke:#000000;stroke-width:1.5;" width="899" x="7" y="7"/><text fill="#000000" font-family="sans-serif" font-size="14" font-weight="bold" lengthAdjust="spacing" textLength="175.9775" x="368.5112" y="21.9951">Search_Class__by/type</text></g><rect fill="#F1F1F1" height="52.5938" rx="2.5" ry="2.5" style="stroke:#181818;stroke-width:0.5;" width="74.1953" x="418.9" y="42"/><text fill="#000000" font-family="sans-serif" font-size="14" font-weight="bold" lengthAdjust="spacing" textLength="54.1953" x="428.9" y="56.9951">Search</text><rect fill="#F1F1F1" height="52.5938" rx="2.5" ry="2.5" style="stroke:#181818;stroke-width:0.5;" width="68.7607" x="22.62" y="154.6"/><text fill="#000000" font-family="sans-serif" font-size="14" font-weight="bold" lengthAdjust="spacing" textLength="48.7607" x="32.62" y="169.5951">Image</text><rect fill="#F1F1F1" height="52.5938" rx="2.5" ry="2.5" style="stroke:#181818;stroke-width:0.5;" width="64.7686" x="126.62" y="154.6"/><text fill="#000000" font-family="sans-serif" font-size="14" font-weight="bold" lengthAdjust="spacing" textLength="44.7686" x="136.62" y="169.5951">Video</text><rect fill="#F1F1F1" height="52.5938" rx="2.5" ry="2.5" style="stroke:#181818;stroke-width:0.5;" width="91.5791" x="226.21" y="154.6"/><text fill="#000000" font-family="sans-serif" font-size="14" font-weight="bold" lengthAdjust="spacing" textLength="71.5791" x="236.21" y="169.5951">Category</text><rect fill="#F1F1F1" height="52.5938" rx="2.5" ry="2.5" style="stroke:#181818;stroke-width:0.5;" width="95.6875" x="353.16" y="154.6"/><text fill="#000000" font-family="sans-serif" font-size="14" font-weight="bold" lengthAdjust="spacing" textLength="75.6875" x="363.16" y="169.5951">DateTime</text><rect fill="#F1F1F1" height="52.5938" rx="2.5" ry="2.5" style="stroke:#181818;stroke-width:0.5;" width="53.4004" x="484.3" y="154.6"/><text fill="#000000" font-family="sans-serif" font-size="14" font-weight="bold" lengthAdjust="spacing" textLength="33.4004" x="494.3" y="169.5951">Map</text><rect fill="#F1F1F1" height="52.5938" rx="2.5" ry="2.5" style="stroke:#181818;stroke-width:0.5;" width="97.2871" x="572.36" y="154.6"/><text fill="#000000" font-family="sans-serif" font-size="14" font-weight="bold" lengthAdjust="spacing" textLength="77.2871" x="582.36" y="169.5951">Language</text><rect fill="#F1F1F1" height="52.5938" rx="2.5" ry="2.5" style="stroke:#181818;stroke-width:0.5;" width="62.2871" x="704.86" y="154.6"/><text fill="#000000" font-family="sans-serif" font-size="14" font-weight="bold" lengthAdjust="spacing" textLength="42.2871" x="714.86" y="169.5951">Topic</text><rect fill="#F1F1F1" height="52.5938" rx="2.5" ry="2.5" style="stroke:#181818;stroke-width:0.5;" width="87.3613" x="802.32" y="154.6"/><text fill="#000000" font-family="sans-serif" font-size="14" font-weight="bold" lengthAdjust="spacing" textLength="67.3613" x="812.32" y="169.5951">Location</text><!--link Search to Image--><g id="link_Search_Image"><path codeLine="23" d="M418.52,75.81 C354.05,87.6 218.54,115 109,154.6 C103.34,156.64 102.9223,156.6154 97.2623,159.2154 " fill="none" id="Search-to-Image" style="stroke:#181818;stroke-width:1.0;"/><polygon fill="#181818" points="91.81,161.72,101.6581,161.598,96.3535,159.6329,98.3187,154.3283,91.81,161.72" style="stroke:#181818;stroke-width:1.0;"/></g><!--link Search to Video--><g id="link_Search_Video"><path codeLine="24" d="M418.58,80.48 C369.68,95.48 281.69,123.82 209,154.6 C203.36,156.99 202.8491,157.0924 197.1691,159.8724 " fill="none" id="Search-to-Video" style="stroke:#181818;stroke-width:1.0;"/><polygon fill="#181818" points="191.78,162.51,201.6221,162.1463,196.271,160.312,198.1053,154.9608,191.78,162.51" style="stroke:#181818;stroke-width:1.0;"/></g><!--link Search to Category--><g id="link_Search_Category"><path codeLine="25" d="M418.76,91.68 C388.63,109.79 351.3028,132.2294 319.8028,151.1594 " fill="none" id="Search-to-Category" style="stroke:#181818;stroke-width:1.0;"/><polygon fill="#181818" points="314.66,154.25,324.4346,153.0427,318.9457,151.6745,320.3138,146.1856,314.66,154.25" style="stroke:#181818;stroke-width:1.0;"/></g><!--link Search to DateTime--><g id="link_Search_DateTime"><path codeLine="26" d="M443.24,94.95 C434.36,112.82 425.2324,131.178 416.3624,149.008 " fill="none" id="Search-to-DateTime" style="stroke:#181818;stroke-width:1.0;"/><polygon fill="#181818" points="413.69,154.38,421.28,148.1037,415.917,149.9034,414.1173,144.5404,413.69,154.38" style="stroke:#181818;stroke-width:1.0;"/></g><!--link Search to Map--><g id="link_Search_Map"><path codeLine="27" d="M468.76,94.95 C477.64,112.82 486.7676,131.178 495.6376,149.008 " fill="none" id="Search-to-Map" style="stroke:#181818;stroke-width:1.0;"/><polygon fill="#181818" points="498.31,154.38,497.8827,144.5404,496.083,149.9034,490.72,148.1037,498.31,154.38" style="stroke:#181818;stroke-width:1.0;"/></g><!--link Search to Language--><g id="link_Search_Language"><path codeLine="28" d="M493.44,94.39 C520.06,112.24 550.736,132.7994 577.576,150.7894 " fill="none" id="Search-to-Language" style="stroke:#181818;stroke-width:1.0;"/><polygon fill="#181818" points="582.56,154.13,577.3111,145.7964,578.4067,151.3462,572.8569,152.4417,582.56,154.13" style="stroke:#181818;stroke-width:1.0;"/></g><!--link Search to Topic--><g id="link_Search_Topic"><path codeLine="29" d="M493.36,81.51 C539.51,96.96 620.11,125.11 687,154.6 C692.69,157.11 693.301,157.2717 699.021,160.1517 " fill="none" id="Search-to-Topic" style="stroke:#181818;stroke-width:1.0;"/><polygon fill="#181818" points="704.38,162.85,698.1403,155.2299,699.9141,160.6014,694.5426,162.3753,704.38,162.85" style="stroke:#181818;stroke-width:1.0;"/></g><!--link Search to Location--><g id="link_Search_Location"><path codeLine="30" d="M493.5,77.23 C555.09,90.65 681.22,119.81 785,154.6 C790.54,156.45 790.7076,156.4063 796.3676,158.6063 " fill="none" id="Search-to-Location" style="stroke:#181818;stroke-width:1.0;"/><polygon fill="#181818" points="801.96,160.78,795.0206,153.7911,797.2997,158.9686,792.1223,161.2477,801.96,160.78" style="stroke:#181818;stroke-width:1.0;"/></g><!--SRC=[TOzD2i8m44RtEKKkKBo1cxeH58GMjsMCGmtD7qbS1EdTZOqjKsYp2EIzoV1zOP36WGVD7OW1UcnYKiWzYWYcLyXk1VC6mOjNLoi8eUiUwH2JG_vXF1-tcYbiN9cp_jtKBEekdsYtLGqHU-lJjZrbsqgzi_OARbjSSg_tRfhMEYbsFbe1KLgps96nqfXNrR5Kf60gHi5SXxAv16KvEdtEWIcROgw6_k6-]--></g></svg>